# xmcd
#
# Track frame offsets:
#	150
#	18014
#	37348
#	58567
#	72023
#	91541
#	115806
#	131568
#	146284
#	165443
#	181219
#	197647
#	216844
#	232788
#	250609
#
# Disc length: 3631 seconds
#
# Revision: 2
# Processed by: cddbd v1.5.2PL0 Copyright (c) Steve Scherf et al.
# Submitted via: audiograbber 1.83.01
#
DISCID=b90e2d0f
DTITLE=Various Artist - Country Strong - CD2
DYEAR=2010
DGENRE=Country
TTITLE0=Gwyneth Paltrow - Shake That Thing
TTITLE1=Gwyneth Paltrow - Coming Home
TTITLE2=Tim McGraw and Gwyneth Paltrow - Me and Tennessee
TTITLE3=Chris Young and Patty Loveless - Love Don't Let Me Down
TTITLE4=Sara Evans - A Little Bit Stronger
TTITLE5=Lee  Ann Womack - Liars Lie
TTITLE6=Ronnie Dunn - She's Actin' Single
TTITLE7=Hank Williams Jr. - Thirsty
TTITLE8=Faith Hill - Give In To Me
TTITLE9=Trace Adkins - Timing Is Everything
TTITLE10=Jypsi - Keep Me Hangin' On
TTITLE11=Hayes Carll - Take Me Away
TTITLE12=Jesse Lee - Kissin' In Cars
TTITLE13=Nikkie Williamns - Fly Again
TTITLE14=Gwyneth Paltrow - Travis
EXTD=
EXTT0=
EXTT1=
EXTT2=
EXTT3=
EXTT4=
EXTT5=
EXTT6=
EXTT7=
EXTT8=
EXTT9=
EXTT10=
EXTT11=
EXTT12=
EXTT13=
EXTT14=
PLAYORDER=
